<svg id="logo-cetra" xmlns="http://www.w3.org/2000/svg" xmlns:xlink="http://www.w3.org/1999/xlink" width="120.284" height="40.994" viewBox="0 0 120.284 40.994">
  <defs>
    <clipPath id="clip-path">
      <rect id="Rectangle_4" data-name="Rectangle 4" width="120.284" height="40.994" fill="none"/>
    </clipPath>
  </defs>
  <g id="Groupe_1" data-name="Groupe 1" clip-path="url(#clip-path)">
    <path id="Tracé_1" data-name="Tracé 1" d="M345.357.2a2.333,2.333,0,0,1,3.081,1.2l9.341,20.831a2.337,2.337,0,1,1-4.277,1.886L344.157,3.284A2.34,2.34,0,0,1,345.357.2" transform="translate(-237.755 0.001)" fill="#006293"/>
    <path id="Tracé_2" data-name="Tracé 2" d="M318.746,40.1a2.332,2.332,0,0,1,3.065,1.24l2.152,4.777a2.337,2.337,0,1,1-4.3,1.832l-2.156-4.78a2.339,2.339,0,0,1,1.239-3.07" transform="translate(-219.341 -27.586)" fill="#feca0a"/>
    <path id="Tracé_3" data-name="Tracé 3" d="M306.651,60.578a2.332,2.332,0,0,1,3.059,1.257l.891,2.158a2.337,2.337,0,1,1-4.311,1.808l-.9-2.16a2.34,2.34,0,0,1,1.255-3.063" transform="translate(-210.974 -41.746)" fill="#c4d11c"/>
    <path id="Tracé_4" data-name="Tracé 4" d="M347.822,57.7a2.334,2.334,0,0,1,3.076,1.217l.5,1.237a2.337,2.337,0,1,1-4.286,1.864l-.5-1.239a2.34,2.34,0,0,1,1.215-3.079" transform="translate(-239.451 -39.75)" fill="#e2001a"/>
    <path id="Tracé_5" data-name="Tracé 5" d="M330.823,18.794a2.332,2.332,0,0,1,3.075,1.217l2.607,5.675a2.337,2.337,0,1,1-4.286,1.865l-2.611-5.678a2.34,2.34,0,0,1,1.216-3.079" transform="translate(-227.701 -12.856)" fill="#e2001a"/>
    <path id="Tracé_6" data-name="Tracé 6" d="M.276,94.125H.818v7.334H.276Zm0-2.854H.818v1.47H.276Z" transform="translate(-0.191 -63.089)" fill="#006293"/>
    <path id="Tracé_7" data-name="Tracé 7" d="M22.169,100.13h.542V101.7h.029a2.347,2.347,0,0,1,.406-.735,2.7,2.7,0,0,1,1.376-.892,3.15,3.15,0,0,1,.841-.114,3.338,3.338,0,0,1,1.091.157,2.149,2.149,0,0,1,.734.414,2,2,0,0,1,.449.578,2.673,2.673,0,0,1,.235.649,3.839,3.839,0,0,1,.086.635c.009.2.014.383.014.535v4.537h-.542v-4.637q0-.27-.043-.685a2.077,2.077,0,0,0-.249-.792,1.815,1.815,0,0,0-.627-.649,2.139,2.139,0,0,0-1.163-.271,2.585,2.585,0,0,0-1.112.228,2.418,2.418,0,0,0-.827.635,2.8,2.8,0,0,0-.52.97,4.067,4.067,0,0,0-.178,1.234v3.966h-.542Z" transform="translate(-15.324 -69.095)" fill="#006293"/>
    <path id="Tracé_8" data-name="Tracé 8" d="M58.105,94.34V93.87h1.312V92.357a1.565,1.565,0,0,1,.128-.664,1.178,1.178,0,0,1,.349-.45,1.54,1.54,0,0,1,.513-.257,2.2,2.2,0,0,1,.62-.085,3.8,3.8,0,0,1,.642.071v.471a3.841,3.841,0,0,0-.642-.072,1.339,1.339,0,0,0-.763.207.928.928,0,0,0-.306.82v1.47h1.526v.471H59.959V101.2h-.542V94.34Z" transform="translate(-40.164 -62.834)" fill="#006293"/>
    <path id="Tracé_9" data-name="Tracé 9" d="M85.807,103.8a4.3,4.3,0,0,0,.185,1.263,3.421,3.421,0,0,0,.542,1.077,2.631,2.631,0,0,0,.884.749,2.779,2.779,0,0,0,2.424,0,2.634,2.634,0,0,0,.884-.749,3.415,3.415,0,0,0,.542-1.077,4.4,4.4,0,0,0,0-2.526,3.415,3.415,0,0,0-.542-1.077,2.63,2.63,0,0,0-.884-.749,2.777,2.777,0,0,0-2.424,0,2.627,2.627,0,0,0-.884.749,3.421,3.421,0,0,0-.542,1.077,4.3,4.3,0,0,0-.185,1.263m-.542,0a4.82,4.82,0,0,1,.221-1.477,3.71,3.71,0,0,1,.649-1.22,3.087,3.087,0,0,1,1.056-.835,3.54,3.54,0,0,1,2.881,0,3.089,3.089,0,0,1,1.055.835,3.71,3.71,0,0,1,.649,1.22A4.82,4.82,0,0,1,92,103.8a4.886,4.886,0,0,1-.221,1.484,3.614,3.614,0,0,1-.649,1.22,3.119,3.119,0,0,1-1.055.828,3.54,3.54,0,0,1-2.881,0,3.117,3.117,0,0,1-1.056-.828,3.614,3.614,0,0,1-.649-1.22,4.886,4.886,0,0,1-.221-1.484" transform="translate(-58.938 -69.096)" fill="#006293"/>
    <path id="Tracé_10" data-name="Tracé 10" d="M126.268,102.041h.043a1.78,1.78,0,0,1,.363-.671,2.558,2.558,0,0,1,.642-.542,3.169,3.169,0,0,1,.841-.35,3.4,3.4,0,0,1,.962-.107v.542a2.571,2.571,0,0,0-.977.086,2.371,2.371,0,0,0-1.048.628,4.953,4.953,0,0,0-.35.414,2.022,2.022,0,0,0-.25.442,2.806,2.806,0,0,0-.157.542,4.728,4.728,0,0,0-.071.714v4.009h-.542v-7.334h.542Z" transform="translate(-86.906 -69.379)" fill="#006293"/>
    <path id="Tracé_11" data-name="Tracé 11" d="M153.163,100.13h.542v1.5h.028a1.963,1.963,0,0,1,.3-.649,2.313,2.313,0,0,1,.521-.535,2.484,2.484,0,0,1,.685-.357,2.447,2.447,0,0,1,.792-.128,2.743,2.743,0,0,1,.913.136,2.166,2.166,0,0,1,.656.356,1.777,1.777,0,0,1,.428.5,1.9,1.9,0,0,1,.214.563h.028a2.669,2.669,0,0,1,.877-1.163,2.436,2.436,0,0,1,1.448-.393,2.72,2.72,0,0,1,.92.15,1.928,1.928,0,0,1,.727.457,2.09,2.09,0,0,1,.478.777,3.255,3.255,0,0,1,.171,1.113v5.008h-.542v-5.022a2.351,2.351,0,0,0-.214-1.1,1.721,1.721,0,0,0-.506-.607,1.446,1.446,0,0,0-.585-.257,2.935,2.935,0,0,0-.449-.049,2.422,2.422,0,0,0-.92.171,1.959,1.959,0,0,0-.727.514,2.4,2.4,0,0,0-.478.849,3.626,3.626,0,0,0-.171,1.163v4.337h-.542v-5.022a2.427,2.427,0,0,0-.207-1.091,1.646,1.646,0,0,0-.485-.606,1.456,1.456,0,0,0-.57-.257,2.6,2.6,0,0,0-.463-.057,2.286,2.286,0,0,0-1.554.642,2.456,2.456,0,0,0-.557.842,3.148,3.148,0,0,0-.214,1.213v4.337h-.542Z" transform="translate(-105.871 -69.095)" fill="#006293"/>
    <path id="Tracé_12" data-name="Tracé 12" d="M208.53,103.3a1.023,1.023,0,0,1-.606.328,7.5,7.5,0,0,1-.905.128l-.913.086c-.266.029-.533.069-.8.121a2.322,2.322,0,0,0-.72.264,1.471,1.471,0,0,0-.521.507,1.561,1.561,0,0,0-.2.835,1.421,1.421,0,0,0,.514,1.206,2.274,2.274,0,0,0,1.412.392,2.776,2.776,0,0,0,1.469-.335,2.6,2.6,0,0,0,.827-.771,2.375,2.375,0,0,0,.364-.842,3.62,3.62,0,0,0,.078-.549Zm0,2.711H208.5a2.261,2.261,0,0,1-.371.621,2.617,2.617,0,0,1-.592.521,2.919,2.919,0,0,1-.791.357,3.462,3.462,0,0,1-.97.128,2.863,2.863,0,0,1-1.812-.506,1.869,1.869,0,0,1-.642-1.562,1.832,1.832,0,0,1,.906-1.691,2.781,2.781,0,0,1,.87-.336,8.527,8.527,0,0,1,.92-.143l.842-.072a4.964,4.964,0,0,0,.92-.135,1.171,1.171,0,0,0,.506-.257.73.73,0,0,0,.214-.421,4.026,4.026,0,0,0,.043-.642,1.35,1.35,0,0,0-.114-.556,1.245,1.245,0,0,0-.356-.457,1.763,1.763,0,0,0-.627-.314,3.348,3.348,0,0,0-.941-.114,2.47,2.47,0,0,0-1.59.485,1.92,1.92,0,0,0-.663,1.47h-.542a2.4,2.4,0,0,1,.777-1.819,3.092,3.092,0,0,1,2.047-.607,2.936,2.936,0,0,1,1.932.521,1.712,1.712,0,0,1,.606,1.363v4.266q0,.157.008.314a1.026,1.026,0,0,0,.049.285.427.427,0,0,0,.143.207.452.452,0,0,0,.285.078,2.574,2.574,0,0,0,.4-.043v.457a1.707,1.707,0,0,1-.442.057,1.311,1.311,0,0,1-.521-.086.687.687,0,0,1-.292-.228.85.85,0,0,1-.136-.335,2.345,2.345,0,0,1-.036-.421Z" transform="translate(-140.544 -69.095)" fill="#006293"/>
    <path id="Tracé_13" data-name="Tracé 13" d="M242.986,95.874h-1.6V101a1.979,1.979,0,0,0,.1.7.8.8,0,0,0,.307.392,1.09,1.09,0,0,0,.5.164,5.136,5.136,0,0,0,.677.014v.471a5.075,5.075,0,0,1-.806-.007,1.609,1.609,0,0,1-.691-.214,1.252,1.252,0,0,1-.478-.535,2.024,2.024,0,0,1-.15-.984V95.874h-1.355V95.4h1.355V93.12h.542V95.4h1.6Z" transform="translate(-165.545 -64.368)" fill="#006293"/>
    <path id="Tracé_14" data-name="Tracé 14" d="M269.006,94.125h.542v7.334h-.542Zm0-2.854h.542v1.47h-.542Z" transform="translate(-185.946 -63.089)" fill="#006293"/>
    <path id="Tracé_15" data-name="Tracé 15" d="M293.057,107.164a2.5,2.5,0,0,0,1.219-.285,2.429,2.429,0,0,0,.849-.764,3.525,3.525,0,0,0,.492-1.084,4.782,4.782,0,0,0,0-2.483,3.354,3.354,0,0,0-.5-1.077,2.568,2.568,0,0,0-.842-.756,2.415,2.415,0,0,0-1.2-.286,2.539,2.539,0,0,0-1.227.278,2.471,2.471,0,0,0-.849.749,3.348,3.348,0,0,0-.5,1.077,4.748,4.748,0,0,0-.164,1.248,5.3,5.3,0,0,0,.15,1.277,3.139,3.139,0,0,0,.485,1.077,2.478,2.478,0,0,0,.849.749,2.574,2.574,0,0,0,1.241.278m2.738-1.341h-.041a2.514,2.514,0,0,1-1.046,1.341,3.023,3.023,0,0,1-.79.35,3.164,3.164,0,0,1-.868.121,3.234,3.234,0,0,1-1.438-.3,2.9,2.9,0,0,1-1.017-.813,3.456,3.456,0,0,1-.6-1.22,5.826,5.826,0,0,1-.014-2.968,3.646,3.646,0,0,1,.571-1.22,2.82,2.82,0,0,1,.984-.842,3.407,3.407,0,0,1,3.095.121,3.336,3.336,0,0,1,1.141,1.306h.028V100.13h.528v9.959H295.8Z" transform="translate(-200.313 -69.095)" fill="#006293"/>
    <path id="Tracé_16" data-name="Tracé 16" d="M336.936,107.849h-.542v-1.569h-.028a2.36,2.36,0,0,1-.406.735,2.7,2.7,0,0,1-1.376.892,3.156,3.156,0,0,1-.841.114,3.328,3.328,0,0,1-1.091-.157,2.134,2.134,0,0,1-.735-.414,2,2,0,0,1-.449-.578,2.655,2.655,0,0,1-.235-.649,3.828,3.828,0,0,1-.086-.635q-.014-.307-.014-.535v-4.537h.542v4.637a6.82,6.82,0,0,0,.043.692,2.065,2.065,0,0,0,.25.785,1.821,1.821,0,0,0,.621.649,2.124,2.124,0,0,0,1.17.271,2.592,2.592,0,0,0,1.1-.228,2.4,2.4,0,0,0,.835-.635,2.8,2.8,0,0,0,.52-.97,4.073,4.073,0,0,0,.178-1.234v-3.966h.542Z" transform="translate(-228.888 -69.479)" fill="#006293"/>
    <path id="Tracé_17" data-name="Tracé 17" d="M374.478,103.4a4.409,4.409,0,0,0-.2-1.134,2.807,2.807,0,0,0-.508-.941,2.534,2.534,0,0,0-.815-.65,2.4,2.4,0,0,0-1.094-.242,2.561,2.561,0,0,0-1.158.25,2.629,2.629,0,0,0-.844.656,2.922,2.922,0,0,0-.529.949,4.439,4.439,0,0,0-.229,1.113Zm-5.391.471v.086a4.345,4.345,0,0,0,.171,1.227,3.146,3.146,0,0,0,.508,1.027,2.406,2.406,0,0,0,.843.7,2.579,2.579,0,0,0,1.18.257,2.513,2.513,0,0,0,1.744-.578,3.026,3.026,0,0,0,.887-1.605h.542a3.285,3.285,0,0,1-1.048,1.969,3.181,3.181,0,0,1-2.132.685,3.232,3.232,0,0,1-1.419-.293,2.882,2.882,0,0,1-1.012-.8,3.391,3.391,0,0,1-.607-1.2,5.367,5.367,0,0,1-.2-1.491,5.217,5.217,0,0,1,.207-1.477,3.708,3.708,0,0,1,.62-1.241,3.081,3.081,0,0,1,1.034-.856,3.141,3.141,0,0,1,1.462-.321,3.1,3.1,0,0,1,1.362.285,2.856,2.856,0,0,1,.991.777,3.471,3.471,0,0,1,.606,1.142,4.56,4.56,0,0,1,.207,1.391c0,.048,0,.1-.007.164s-.007.112-.007.15Z" transform="translate(-254.75 -69.096)" fill="#006293"/>
    <path id="Tracé_18" data-name="Tracé 18" d="M101.679,16.416v-4.8H90.415V6.05h12.75V1.487h-18V16.416Z" transform="translate(-58.867 -1.028)" fill="#62a4d3"/>
    <path id="Tracé_19" data-name="Tracé 19" d="M90.415,60.672V57.9H85.163v7.332H104.34V60.672Z" transform="translate(-58.867 -40.025)" fill="#62a4d3"/>
    <path id="Tracé_20" data-name="Tracé 20" d="M21.343,52.765A7.2,7.2,0,0,1,14.916,56.6a7.3,7.3,0,0,1-5.277-2.251H3.483a12.5,12.5,0,0,0,22.49.764c-2.211-1-2.281-1.141-4.63-2.35" transform="translate(-2.408 -36.473)" fill="#006293"/>
    <path id="Tracé_21" data-name="Tracé 21" d="M5.655,16.03a7.328,7.328,0,0,1,6.853-9.916,7.188,7.188,0,0,1,6.22,3.561c2.35-1.141,2.523-1.245,4.63-2.351a12.4,12.4,0,0,0-10.85-6.4A12.52,12.52,0,0,0,.269,16.03Z" transform="translate(0 -0.641)" fill="#006293"/>
    <rect id="Rectangle_2" data-name="Rectangle 2" width="21.043" height="4.5" transform="translate(47.719 0.598)" fill="#006293"/>
    <rect id="Rectangle_3" data-name="Rectangle 3" width="5.425" height="17.658" transform="translate(55.562 7.588)" fill="#006293"/>
    <path id="Tracé_22" data-name="Tracé 22" d="M246.835,17.379h-.207c4.112-.9,5.874-4.286,5.874-7.64,0-4.01-2.385-7.917-8.6-7.917H232.771v4.22h5.459v0h4.216c2.591,0,4.734.484,4.734,3.7,0,3.145-2.143,3.734-4.734,3.734H238.23V8.848h-5.459V26.54h5.459V17.656h2.661l6.22,8.884h6.634Z" transform="translate(-160.899 -1.26)" fill="#006293"/>
  </g>
</svg>
